<svg width="95" height="87" viewBox="0 0 95 87" fill="none" xmlns="http://www.w3.org/2000/svg">
<path d="M86.4612 86.9999C76.5969 79.9696 63.0856 75.6197 48.1683 75.6197C33.273 75.6197 19.7618 79.9696 9.89746 86.9999H86.4612Z" fill="white"/>
<path d="M90.7452 82.9338C88.79 83.1974 62.7341 82.9338 62.7341 82.9338L62.119 80.2096L59.7463 69.4885C59.7463 69.4885 69.3469 69.9718 68.7538 69.2468C68.1606 68.5438 67.106 57.5151 61.7675 55.8454C56.4289 54.1757 48.1683 53.9341 48.1683 53.9341V32.9752L55.7917 27.8563C59.4826 32.1623 79.1673 43.1251 81.562 48.3758C83.9567 53.6045 93.3596 66.94 94.2164 72.1688C95.0952 77.4195 92.7005 82.6921 90.7452 82.9338Z" fill="url(#paint0_linear_2001_3979)"/>
<path style="mix-blend-mode:multiply" d="M90.745 82.9346C88.7897 83.1982 62.7339 82.9346 62.7339 82.9346L62.1188 80.2103C66.9521 80.0126 74.0262 79.6391 80.5292 79.0899C91.8215 78.1232 94.2162 72.1695 94.2162 72.1695C95.095 77.4202 92.7003 82.6929 90.745 82.9346Z" fill="url(#paint1_linear_2001_3979)"/>
<path style="mix-blend-mode:multiply" d="M86.4611 69.864C86.4611 69.864 80.5732 57.0557 74.5975 53.7823L76.4869 68.5019L86.4611 69.864Z" fill="url(#paint2_linear_2001_3979)"/>
<path d="M74.597 71.1145C74.597 71.1145 82.8356 68.5661 90.2832 72.2569C90.2832 72.2569 88.3939 68.5221 80.4629 66.8964C80.4629 66.8964 75.4099 50.2655 69.4342 49.4965C63.4585 48.7056 63.1509 72.2569 63.1509 72.2569L74.597 71.1145Z" fill="#00042D"/>
<path d="M38.6118 27.8563C34.9209 32.1623 15.2362 43.1251 12.8416 48.3758C10.4469 53.6045 1.04394 66.94 0.187131 72.1688C-0.691649 77.4195 1.70302 82.6921 3.65831 82.9338C5.6136 83.1974 31.6694 82.9338 31.6694 82.9338L34.6573 69.4885C34.6573 69.4885 25.0566 69.9718 25.6498 69.2468C26.243 68.5438 27.2975 57.5151 32.6361 55.8454C37.9747 54.1757 46.2352 53.9341 46.2352 53.9341V32.9752L38.6118 27.8563Z" fill="url(#paint3_linear_2001_3979)"/>
<path style="mix-blend-mode:multiply" d="M3.65831 82.9346C5.6136 83.1982 31.6694 82.9346 31.6694 82.9346L32.2846 80.2103C27.4513 80.0126 20.3771 79.6391 13.8741 79.0899C2.5818 78.1232 0.187131 72.1695 0.187131 72.1695C-0.691649 77.4202 1.70302 82.6929 3.65831 82.9346Z" fill="url(#paint4_linear_2001_3979)"/>
<path style="mix-blend-mode:multiply" d="M7.94159 69.864C7.94159 69.864 13.8294 57.0557 19.8051 53.7823L17.9157 68.5019L7.94159 69.864Z" fill="url(#paint5_linear_2001_3979)"/>
<path d="M20.5082 71.1145C20.5082 71.1145 12.2697 68.5661 4.82202 72.2569C4.82202 72.2569 6.7114 68.5221 14.6204 66.8964C14.6204 66.8964 19.6734 50.2655 25.6711 49.4965C31.6468 48.7056 31.9324 72.2569 31.9324 72.2569L20.5082 71.1145Z" fill="#00042D"/>
<path d="M66.996 27.0669C66.7104 33.2843 65.6339 46.4001 61.262 49.9591C57.9885 52.6174 52.0568 50.9477 47.6189 50.9477C42.4341 50.9477 37.1834 53.4523 33.7122 49.9591C30.1971 46.444 28.4835 32.5153 28.2418 27.0669C31.6471 19.773 39.0508 14.6981 47.6189 14.6981C56.209 14.6981 63.6127 19.773 66.996 27.0669Z" fill="url(#paint6_linear_2001_3979)"/>
<path style="mix-blend-mode:multiply" d="M29.0995 20.8923C29.0995 30.0317 31.4283 39.6104 33.2518 43.8505C35.0972 48.0906 41.2047 55.8019 47.6418 56.9443C54.0789 58.0867 60.3841 48.7497 62.4053 43.2133C65.7007 34.2937 66.0083 19.662 66.0083 19.662C66.0083 19.662 55.5069 10.1053 45.6865 11.0061C35.8881 11.8848 29.0995 20.8923 29.0995 20.8923Z" fill="url(#paint7_linear_2001_3979)"/>
<path d="M33.0753 18.6531C33.0753 25.7273 34.8988 33.131 36.3488 36.4044C37.7768 39.6999 41.8192 46.5544 47.6191 46.5544C52.738 46.5544 57.6152 40.2052 59.197 35.9431C61.7894 29.0227 62.0311 17.6864 62.0311 17.6864C62.0311 17.6864 53.7926 10.3047 46.1032 10.9857C38.3919 11.6668 33.0753 18.6531 33.0753 18.6531Z" fill="#00042D"/>
<path d="M47.6195 0C40.4794 0 28.2204 14.7635 28.2204 26.0778C28.2204 26.4147 28.2277 26.7442 28.2424 27.0664C31.6476 19.7726 39.0514 14.6976 47.6195 14.6976C56.2095 14.6976 63.6133 19.7726 66.9966 27.0664C67.0112 26.7442 67.0185 26.4147 67.0185 26.0778C67.0185 14.7635 55.0012 0 47.6195 0Z" fill="url(#paint8_linear_2001_3979)"/>
<path d="M70.9296 81.7477H24.3103C22.1134 81.7477 20.2679 80.056 20.0922 77.8591L17.4558 47.5632C17.2361 45.0806 19.1914 42.9496 21.674 42.9496H73.5659C76.0705 42.9496 78.0038 45.0806 77.8061 47.5632L75.1697 77.8591C74.972 80.056 73.1485 81.7477 70.9296 81.7477Z" fill="white"/>
<path d="M70.9296 83.0661H24.3103C22.1134 83.0661 20.2679 81.3745 20.0922 79.1775L17.4558 48.8816C17.2361 46.399 19.1914 44.268 21.674 44.268H73.5659C76.0705 44.268 78.0038 46.399 77.8061 48.8816L75.1697 79.1775C74.972 81.3745 73.1485 83.0661 70.9296 83.0661Z" fill="url(#paint9_linear_2001_3979)"/>
<g style="mix-blend-mode:multiply">
<path d="M24.2444 44.268H21.674C19.1914 44.268 17.2361 46.399 17.4558 48.8816L20.0922 79.1775C20.2679 81.3745 22.1134 83.0661 24.3103 83.0661H26.1338L24.2444 44.268Z" fill="url(#paint10_linear_2001_3979)"/>
<path d="M73.5653 44.2679H70.9948L69.1055 83.066H70.9289C73.1479 83.066 74.9713 81.3744 75.169 79.1774L77.8054 48.8815C78.0031 46.3989 76.0698 44.2679 73.5653 44.2679Z" fill="url(#paint11_linear_2001_3979)"/>
</g>
<defs>
<linearGradient id="paint0_linear_2001_3979" x1="7.54123" y1="84.7041" x2="66.9597" y2="-24.9328" gradientUnits="userSpaceOnUse">
<stop stop-color="#FF00C1"/>
<stop offset="1" stop-color="#F4AC24"/>
</linearGradient>
<linearGradient id="paint1_linear_2001_3979" x1="69.8758" y1="86.5852" x2="79.9846" y2="64.365" gradientUnits="userSpaceOnUse">
<stop stop-color="#F4D63B" stop-opacity="0"/>
<stop offset="1" stop-color="#5C1CB2"/>
</linearGradient>
<linearGradient id="paint2_linear_2001_3979" x1="94.7392" y1="50.4317" x2="90.8767" y2="73.0544" gradientUnits="userSpaceOnUse">
<stop stop-color="#F4D63B" stop-opacity="0"/>
<stop offset="1" stop-color="#5C1CB2"/>
</linearGradient>
<linearGradient id="paint3_linear_2001_3979" x1="-23.0239" y1="52.1987" x2="18.1071" y2="-23.695" gradientUnits="userSpaceOnUse">
<stop stop-color="#FF00C1"/>
<stop offset="1" stop-color="#F4AC24"/>
</linearGradient>
<linearGradient id="paint4_linear_2001_3979" x1="24.5276" y1="86.5852" x2="14.4188" y2="64.365" gradientUnits="userSpaceOnUse">
<stop stop-color="#F4D63B" stop-opacity="0"/>
<stop offset="1" stop-color="#5C1CB2"/>
</linearGradient>
<linearGradient id="paint5_linear_2001_3979" x1="-0.33652" y1="50.4317" x2="3.52592" y2="73.0544" gradientUnits="userSpaceOnUse">
<stop stop-color="#F4D63B" stop-opacity="0"/>
<stop offset="1" stop-color="#5C1CB2"/>
</linearGradient>
<linearGradient id="paint6_linear_2001_3979" x1="-3.03308" y1="75.3934" x2="44.9418" y2="-13.1281" gradientUnits="userSpaceOnUse">
<stop stop-color="#FF00C1"/>
<stop offset="1" stop-color="#F4AC24"/>
</linearGradient>
<linearGradient id="paint7_linear_2001_3979" x1="14.2001" y1="55.2638" x2="18.5475" y2="13.0332" gradientUnits="userSpaceOnUse">
<stop stop-color="#F4D63B" stop-opacity="0"/>
<stop offset="1" stop-color="#5C1CB2"/>
</linearGradient>
<linearGradient id="paint8_linear_2001_3979" x1="-2.75331" y1="75.5087" x2="44.6073" y2="-11.8791" gradientUnits="userSpaceOnUse">
<stop stop-color="#FF00C1"/>
<stop offset="1" stop-color="#F4AC24"/>
</linearGradient>
<linearGradient id="paint9_linear_2001_3979" x1="75.3272" y1="43.7403" x2="52.2382" y2="103.267" gradientUnits="userSpaceOnUse">
<stop stop-color="#A76DFC"/>
<stop offset="1" stop-color="#5C1CB2"/>
</linearGradient>
<linearGradient id="paint10_linear_2001_3979" x1="109.753" y1="48.2992" x2="108.016" y2="85.0772" gradientUnits="userSpaceOnUse">
<stop stop-color="white" stop-opacity="0"/>
<stop offset="1" stop-color="#5C1CB2"/>
</linearGradient>
<linearGradient id="paint11_linear_2001_3979" x1="161.315" y1="50.6401" x2="159.587" y2="87.2167" gradientUnits="userSpaceOnUse">
<stop stop-color="white" stop-opacity="0"/>
<stop offset="1" stop-color="#5C1CB2"/>
</linearGradient>
</defs>
</svg>
